<svg width="256" height="256" viewBox="0 0 256 256" xmlns="http://www.w3.org/2000/svg">
  <rect x="22.5" y="54.5" width="211" height="147" rx="15" fill="#302E31"/>
  <path d="M150.4 67.5c0 1.4-1.1 2.5-2.5 2.5h-32c-1.4 0-2.5-1.1-2.5-2.5v-4c0-1.4 1.1-2.5 2.5-2.5h32c1.4 0 2.5 1.1 2.5 2.5v4zM152.9 97.5c0 1.4-1.1 2.5-2.5 2.5h-36c-1.4 0-2.5-1.1-2.5-2.5v-4c0-1.4 1.1-2.5 2.5-2.5h36c1.4 0 2.5 1.1 2.5 2.5v4zM155.4 127.5c0 1.4-1.1 2.5-2.5 2.5h-40c-1.4 0-2.5-1.1-2.5-2.5v-4c0-1.4 1.1-2.5 2.5-2.5h40c1.4 0 2.5 1.1 2.5 2.5v4zM157.9 157.5c0 1.4-1.1 2.5-2.5 2.5h-44c-1.4 0-2.5-1.1-2.5-2.5v-4c0-1.4 1.1-2.5 2.5-2.5h44c1.4 0 2.5 1.1 2.5 2.5v4z" fill="#6441A4"/>
  <path d="M79.5 127.5l18-18 5.6 5.6-23.6 23.6-14.6-14.6 5.6-5.6 9 9z" fill="#FFFFFF"/>
  <path d="M79.5 127.5l18 18 5.6-5.6-23.6-23.6-14.6 14.6 5.6 5.6 9-9z" fill="#FFFFFF"/>
</svg>
